<svg xmlns="http://www.w3.org/2000/svg" viewBox="0 0 150.4 49.6">
  <style type="text/css">.cls-0 {fill:#010101;}
.cls-1 {fill:#FFFFFF;}</style>
  <path class="cls-1" d="m32.1 15c-0.3-0.6-0.9-0.9-1.7-0.9-0.9 0-1.4 0.4-1.9 1.2l-9.1 14.7h-0.4l-8.6-14.7c-0.6-1.2-1.1-1.2-2.2-1.2-0.9 0.2-1.8 0.7-1.8 2.1v24.3c0 1 0.7 1.9 1.7 1.9h0.3c1 0 1.8-0.8 1.8-1.9v-16.6c0-0.7 0.4-0.2 0.4-0.2l7.7 13.2c0.5 1 0.5 0.5 1.4 0.3l7.8-13.4c0.4-0.6 0.8-0.2 0.8 0.2v16.3c0 1.4 0.7 2.1 1.7 2.1h0.3c1 0 1.8-0.7 1.8-1.9v-24.4-1.1z"/>
  <path class="cls-1" d="m51.6 14.5c-6.6 0.2-13.9 5.8-14 14.3s6.4 14 13.8 14c7.9 0.3 14-5.9 14-13.9-0.1-7.8-6.3-14.6-13.8-14.4zm-0.1 24.3c-5-0.2-9.7-4.1-9.8-9.9 0-5.8 4.4-10.2 9.9-10.3 5.2 0 9.6 4 9.7 10.2-0.1 5.7-4.2 10.1-9.8 10z"/>
  <circle class="cls-1" cx="46.6" cy="9.2" r="2.9"/>
  <circle class="cls-1" cx="56.5" cy="9.2" r="2.8"/>
  <path class="cls-1" d="m85.8 32.4c-0.1 0.8 0.6 1.1 4.7 7.4 1.4 2.1-1.4 4.1-3 2.1l-6-8.3c-0.8-1-1.6-1.1-2.6-1.1h-3.6c-1 0-1.5 0.6-1.5 1.7v6.8c0 1.1-0.9 1.8-1.9 1.8s-1.8-0.7-1.8-1.8v-8.6c0-1.9 1-3.8 3.3-3.8h8.6c6 0.2 7.4-8.3 1.8-10.4-0.6-0.1-1.1-0.1-1.8-0.1h-10c-1 0-1.9-0.8-1.9-2 0-0.9 0.8-1.9 1.9-1.9h10c4.9-0.1 8.8 3.7 8.9 8.5 0.2 3.8-1.7 7.2-4.8 8.7l-0.3 0.2v0.8z"/>
  <path class="cls-1" d="m108.1 32.7h-6.7c-0.9 0.1-1.4 0.5-1.4 1.7v6.6c0 1.2-0.9 1.8-2 1.8-1 0-1.9-0.8-1.9-1.8v-8.6c0-2.1 1-3.6 3-3.6h8.4c7 0.4 7.5-7.2 4.2-9.6-0.9-0.8-1.9-1-3.2-1h-10.4c-1 0-1.9-0.8-1.9-2.1 0-1 0.8-1.8 1.9-1.8h10c4.4-0.2 8.9 3.3 9 8.8 0 5.6-4.6 9.7-9 9.6z"/>
  <path class="cls-1" d="m141.8 42.9c-1.3 0.1-1.9-0.9-1.9-1.8v-9.6c0-1-0.7-1.4-1.3-1.4h-11.2c-0.9 0-1.3 0.1-1.3 1.4v9.6c-0.1 1.1-0.9 1.8-2.2 1.7-0.9 0-1.8-0.8-1.8-1.8v-25.1c0-1.1 0.9-2.1 2.2-1.9 0.8 0.1 1.7 0.8 1.8 2v9c0 1 0.5 1.3 1.2 1.3h11.8c0.8 0 1.1-0.6 1.1-1.3v-9.1c0.1-1.2 0.9-2.1 2.3-1.9 0.9 0.1 1.6 1 1.5 2.2v24.8c0 0.9-0.4 1.9-2.2 1.9z"/>
</svg>
